#N canvas 166 59 1366 703 10;
#X obj 129 130 comport;
#X msg 101 93 devices;
#X msg 249 118 close;
#X obj 346 202 zl group 255;
#X obj 288 169 sel 255;
#X obj 237 275 sel 253;
#X floatatom 248 335 5 0 0 0 - - -;
#X obj 69 305 unpack 0 0;
#X floatatom 61 332 5 0 0 0 - - -;
#X obj 335 262 zl len;
#X floatatom 332 293 5 0 0 0 - - -;
#X obj 113 431 unpack 0 0 0 0 0 0 0;
#X obj 103 468 vsl 15 128 0 255 0 0 empty empty empty 0 -9 0 10 -262144
-1 -1 0 1;
#X obj 133 472 vsl 15 128 0 255 0 0 empty empty empty 0 -9 0 10 -262144
-1 -1 0 1;
#X obj 158 476 vsl 15 128 0 255 0 0 empty empty empty 0 -9 0 10 -262144
-1 -1 0 1;
#X obj 188 480 vsl 15 128 0 255 0 0 empty empty empty 0 -9 0 10 -262144
-1 -1 0 1;
#X obj 213 473 vsl 15 128 0 255 0 0 empty empty empty 0 -9 0 10 -262144
-1 -1 0 1;
#X obj 243 477 vsl 15 128 0 255 0 0 empty empty empty 0 -9 0 10 -262144
-1 -1 0 1;
#X obj 274 482 vsl 15 128 0 255 0 0 empty empty empty 0 -9 0 10 -262144
-1 -1 0 1;
#X obj 371 442 unpack 0 0 0 0 0 0 0;
#X obj 361 479 vsl 15 128 0 255 0 0 empty empty empty 0 -9 0 10 -262144
-1 -1 0 1;
#X obj 391 483 vsl 15 128 0 255 0 0 empty empty empty 0 -9 0 10 -262144
-1 -1 0 1;
#X obj 416 487 vsl 15 128 0 255 0 0 empty empty empty 0 -9 0 10 -262144
-1 -1 0 1;
#X obj 446 491 vsl 15 128 0 255 0 0 empty empty empty 0 -9 0 10 -262144
-1 -1 0 1;
#X obj 471 484 vsl 15 128 0 255 0 0 empty empty empty 0 -9 0 10 -262144
-1 -1 0 1;
#X obj 501 488 vsl 15 128 0 255 0 0 empty empty empty 0 -9 0 10 -262144
-1 -1 0 1;
#X obj 532 493 vsl 15 128 0 255 0 0 empty empty empty 0 -9 0 10 -262144
-1 -1 0 1;
#X obj 603 450 unpack 0 0 0 0 0 0 0;
#X obj 593 487 vsl 15 128 0 255 0 0 empty empty empty 0 -9 0 10 -262144
-1 -1 0 1;
#X obj 623 491 vsl 15 128 0 255 0 0 empty empty empty 0 -9 0 10 -262144
-1 -1 0 1;
#X obj 648 495 vsl 15 128 0 255 0 0 empty empty empty 0 -9 0 10 -262144
-1 -1 0 1;
#X obj 678 499 vsl 15 128 0 255 0 0 empty empty empty 0 -9 0 10 -262144
-1 -1 0 1;
#X obj 703 492 vsl 15 128 0 255 0 0 empty empty empty 0 -9 0 10 -262144
-1 -1 0 1;
#X obj 733 496 vsl 15 128 0 255 0 0 empty empty empty 0 -9 0 10 -262144
-1 -1 0 1;
#X obj 764 501 vsl 15 128 0 255 0 0 empty empty empty 0 -9 0 10 -262144
-1 -1 0 1;
#X obj 842 461 unpack 0 0 0 0 0 0 0;
#X obj 832 498 vsl 15 128 0 255 0 0 empty empty empty 0 -9 0 10 -262144
-1 -1 0 1;
#X obj 862 502 vsl 15 128 0 255 0 0 empty empty empty 0 -9 0 10 -262144
-1 -1 0 1;
#X obj 887 506 vsl 15 128 0 255 0 0 empty empty empty 0 -9 0 10 -262144
-1 -1 0 1;
#X obj 917 510 vsl 15 128 0 255 0 0 empty empty empty 0 -9 0 10 -262144
-1 -1 0 1;
#X obj 942 503 vsl 15 128 0 255 0 0 empty empty empty 0 -9 0 10 -262144
-1 -1 0 1;
#X obj 972 507 vsl 15 128 0 255 0 0 empty empty empty 0 -9 0 10 -262144
-1 -1 0 1;
#X obj 1003 512 vsl 15 128 0 255 0 0 empty empty empty 0 -9 0 10 -262144
-1 -1 0 1;
#X obj 1061 458 unpack 0 0 0 0 0 0 0;
#X obj 1051 495 vsl 15 128 0 255 0 0 empty empty empty 0 -9 0 10 -262144
-1 -1 0 1;
#X obj 1081 499 vsl 15 128 0 255 0 0 empty empty empty 0 -9 0 10 -262144
-1 -1 0 1;
#X obj 1106 503 vsl 15 128 0 255 0 0 empty empty empty 0 -9 0 10 -262144
-1 -1 0 1;
#X obj 1136 507 vsl 15 128 0 255 0 0 empty empty empty 0 -9 0 10 -262144
-1 -1 0 1;
#X obj 1161 500 vsl 15 128 0 255 0 0 empty empty empty 0 -9 0 10 -262144
-1 -1 0 1;
#X obj 1191 504 vsl 15 128 0 255 0 0 empty empty empty 0 -9 0 10 -262144
-1 -1 0 1;
#X obj 1222 509 vsl 15 128 0 255 0 0 empty empty empty 0 -9 0 10 -262144
-1 -1 0 1;
#X obj 245 307 realtime;
#X obj 507 187 counter;
#X obj 527 52 delay 1000;
#X obj 462 141 spigot;
#X msg 492 89 1;
#X msg 555 109 0;
#X obj 485 17 bng 15 250 50 0 empty empty empty 17 7 0 10 -262144 -1
-1;
#X floatatom 509 216 5 0 0 0 - - -;
#X msg 575 153 set 0;
#X obj 44 365 print;
#X obj 121 193 route 252 253;
#X obj 250 413 print;
#X obj 198 372 print;
#X msg 178 95 open 2;
#X obj 178 301 print;
#X msg 373 406 \$8 \$9 \$10 \$11 \$12 \$13 \$14;
#X msg 606 415 \$15 \$16 \$17 \$18 \$19 \$20 \$21;
#X msg 845 426 \$22 \$23 \$24 \$25 \$26 \$27 \$28;
#X msg 1064 423 \$29 \$30 \$31 \$32 \$33 \$34 \$35;
#X connect 0 0 4 0;
#X connect 1 0 0 0;
#X connect 2 0 0 0;
#X connect 3 0 9 0;
#X connect 3 0 61 0;
#X connect 4 0 3 0;
#X connect 4 1 3 0;
#X connect 4 1 5 0;
#X connect 5 0 51 1;
#X connect 5 0 51 0;
#X connect 5 0 54 0;
#X connect 7 0 8 0;
#X connect 9 0 10 0;
#X connect 11 0 12 0;
#X connect 11 1 13 0;
#X connect 11 2 14 0;
#X connect 11 3 15 0;
#X connect 11 4 16 0;
#X connect 11 5 17 0;
#X connect 11 6 18 0;
#X connect 19 0 20 0;
#X connect 19 1 21 0;
#X connect 19 2 22 0;
#X connect 19 3 23 0;
#X connect 19 4 24 0;
#X connect 19 5 25 0;
#X connect 19 6 26 0;
#X connect 27 0 28 0;
#X connect 27 1 29 0;
#X connect 27 2 30 0;
#X connect 27 3 31 0;
#X connect 27 4 32 0;
#X connect 27 5 33 0;
#X connect 27 6 34 0;
#X connect 35 0 36 0;
#X connect 35 1 37 0;
#X connect 35 2 38 0;
#X connect 35 3 39 0;
#X connect 35 4 40 0;
#X connect 35 5 41 0;
#X connect 35 6 42 0;
#X connect 43 0 44 0;
#X connect 43 1 45 0;
#X connect 43 2 46 0;
#X connect 43 3 47 0;
#X connect 43 4 48 0;
#X connect 43 5 49 0;
#X connect 43 6 50 0;
#X connect 51 0 6 0;
#X connect 52 0 58 0;
#X connect 53 0 56 0;
#X connect 54 0 52 0;
#X connect 55 0 54 1;
#X connect 56 0 54 1;
#X connect 57 0 55 0;
#X connect 57 0 53 0;
#X connect 59 0 52 0;
#X connect 61 0 7 0;
#X connect 61 0 60 0;
#X connect 61 1 11 0;
#X connect 61 1 66 0;
#X connect 61 1 67 0;
#X connect 61 1 68 0;
#X connect 61 1 69 0;
#X connect 64 0 0 0;
#X connect 66 0 19 0;
#X connect 67 0 27 0;
#X connect 68 0 35 0;
#X connect 69 0 43 0;
