#N canvas 658 126 868 371 10;
#X obj 129 130 comport;
#X msg 101 93 devices;
#X msg 177 94 open 14;
#X obj 91 198 print;
#X msg 249 118 close;
#X obj 288 221 zl group 255;
#X obj 288 169 sel 255;
#X obj 288 252 unpack 0 0 0 0 0 0 0 0 0 0 0 0 0 0 0 0 0 0 0 0 0 0 0
0 0 0 0 0 0 0 0 0 0 0 0;
#X obj 237 275 sel 253;
#X obj 245 307 realtime;
#X floatatom 248 335 5 0 0 0 - - -;
#X obj 77 246 route 252;
#X obj 69 305 unpack 0 0;
#X floatatom 61 332 5 0 0 0 - - -;
#X obj 134 172 print;
#X connect 0 0 6 0;
#X connect 1 0 0 0;
#X connect 2 0 0 0;
#X connect 4 0 0 0;
#X connect 5 0 7 0;
#X connect 5 0 11 0;
#X connect 5 0 3 0;
#X connect 5 0 14 0;
#X connect 6 0 5 0;
#X connect 6 1 5 0;
#X connect 6 1 8 0;
#X connect 8 0 9 1;
#X connect 8 0 9 0;
#X connect 9 0 10 0;
#X connect 11 0 12 0;
#X connect 12 0 13 0;
