#N canvas 0 0 1366 686 10;
#X obj 129 130 comport;
#X msg 101 93 devices;
#X msg 249 118 close;
#X obj 346 202 zl group 255;
#X obj 288 169 sel 255;
#X obj 237 275 sel 253;
#X floatatom 248 335 5 0 0 0 - - -;
#X obj 69 305 unpack 0 0;
#X floatatom 61 332 5 0 0 0 - - -;
#X obj 335 262 zl len;
#X floatatom 332 293 5 0 0 0 - - -;
#X obj 103 468 vsl 15 128 0 255 0 0 empty empty empty 0 -9 0 10 -262144
-1 -1 249 1;
#X obj 133 472 vsl 15 128 0 255 0 0 empty empty empty 0 -9 0 10 -262144
-1 -1 1743 1;
#X obj 158 476 vsl 15 128 0 255 0 0 empty empty empty 0 -9 0 10 -262144
-1 -1 2092 1;
#X obj 188 480 vsl 15 128 0 255 0 0 empty empty empty 0 -9 0 10 -262144
-1 -1 2241 1;
#X obj 213 473 vsl 15 128 0 255 0 0 empty empty empty 0 -9 0 10 -262144
-1 -1 2241 1;
#X obj 243 477 vsl 15 128 0 255 0 0 empty empty empty 0 -9 0 10 -262144
-1 -1 4931 1;
#X obj 274 482 vsl 15 128 0 255 0 0 empty empty empty 0 -9 0 10 -262144
-1 -1 5877 1;
#X obj 318 441 unpack 0 0 0 0 0 0 0;
#X obj 311 481 vsl 15 128 0 255 0 0 empty empty empty 0 -9 0 10 -262144
-1 -1 50 1;
#X obj 338 482 vsl 15 128 0 255 0 0 empty empty empty 0 -9 0 10 -262144
-1 -1 1843 1;
#X obj 363 486 vsl 15 128 0 255 0 0 empty empty empty 0 -9 0 10 -262144
-1 -1 1444 1;
#X obj 393 490 vsl 15 128 0 255 0 0 empty empty empty 0 -9 0 10 -262144
-1 -1 50 1;
#X obj 418 483 vsl 15 128 0 255 0 0 empty empty empty 0 -9 0 10 -262144
-1 -1 50 1;
#X obj 448 487 vsl 15 128 0 255 0 0 empty empty empty 0 -9 0 10 -262144
-1 -1 2191 1;
#X obj 479 492 vsl 15 128 0 255 0 0 empty empty empty 0 -9 0 10 -262144
-1 -1 6076 1;
#X obj 603 450 unpack 0 0 0 0 0 0 0;
#X obj 593 487 vsl 15 128 0 255 0 0 empty empty empty 0 -9 0 10 -262144
-1 -1 1245 1;
#X obj 623 491 vsl 15 128 0 255 0 0 empty empty empty 0 -9 0 10 -262144
-1 -1 100 1;
#X obj 648 495 vsl 15 128 0 255 0 0 empty empty empty 0 -9 0 10 -262144
-1 -1 50 1;
#X obj 678 499 vsl 15 128 0 255 0 0 empty empty empty 0 -9 0 10 -262144
-1 -1 50 1;
#X obj 703 492 vsl 15 128 0 255 0 0 empty empty empty 0 -9 0 10 -262144
-1 -1 199 1;
#X obj 733 496 vsl 15 128 0 255 0 0 empty empty empty 0 -9 0 10 -262144
-1 -1 3885 1;
#X obj 764 501 vsl 15 128 0 255 0 0 empty empty empty 0 -9 0 10 -262144
-1 -1 5279 1;
#X obj 842 461 unpack 0 0 0 0 0 0 0;
#X obj 832 498 vsl 15 128 0 255 0 0 empty empty empty 0 -9 0 10 -262144
-1 -1 398 1;
#X obj 862 502 vsl 15 128 0 255 0 0 empty empty empty 0 -9 0 10 -262144
-1 -1 50 1;
#X obj 887 506 vsl 15 128 0 255 0 0 empty empty empty 0 -9 0 10 -262144
-1 -1 50 1;
#X obj 917 510 vsl 15 128 0 255 0 0 empty empty empty 0 -9 0 10 -262144
-1 -1 249 1;
#X obj 942 503 vsl 15 128 0 255 0 0 empty empty empty 0 -9 0 10 -262144
-1 -1 199 1;
#X obj 972 507 vsl 15 128 0 255 0 0 empty empty empty 0 -9 0 10 -262144
-1 -1 8417 1;
#X obj 1003 512 vsl 15 128 0 255 0 0 empty empty empty 0 -9 0 10 -262144
-1 -1 6873 1;
#X obj 1061 458 unpack 0 0 0 0 0 0 0;
#X obj 1051 495 vsl 15 128 0 255 0 0 empty empty empty 0 -9 0 10 -262144
-1 -1 498 1;
#X obj 1081 499 vsl 15 128 0 255 0 0 empty empty empty 0 -9 0 10 -262144
-1 -1 50 1;
#X obj 1106 503 vsl 15 128 0 255 0 0 empty empty empty 0 -9 0 10 -262144
-1 -1 50 1;
#X obj 1136 507 vsl 15 128 0 255 0 0 empty empty empty 0 -9 0 10 -262144
-1 -1 50 1;
#X obj 1161 500 vsl 15 128 0 255 0 0 empty empty empty 0 -9 0 10 -262144
-1 -1 50 1;
#X obj 1191 504 vsl 15 128 0 255 0 0 empty empty empty 0 -9 0 10 -262144
-1 -1 9214 1;
#X obj 1222 509 vsl 15 128 0 255 0 0 empty empty empty 0 -9 0 10 -262144
-1 -1 11704 1;
#X obj 245 307 realtime;
#X obj 507 187 counter;
#X obj 527 52 delay 1000;
#X obj 462 141 spigot;
#X msg 492 89 1;
#X msg 555 109 0;
#X obj 485 17 bng 15 250 50 0 empty empty empty 17 7 0 10 -262144 -1
-1;
#X floatatom 509 216 5 0 0 0 - - -;
#X msg 575 153 set 0;
#X obj 44 365 print;
#X obj 76 247 route 252 253;
#X msg 178 95 open 17;
#X obj 135 424 unpack 0 0 0 0 0 0 0;
#X msg 127 398 \$2 \$3 \$4 \$5 \$6 \$7 \$8;
#X msg 320 406 \$9 \$10 \$11 \$12 \$13 \$14 \$15;
#X msg 606 415 \$16 \$17 \$18 \$19 \$20 \$21 \$22;
#X msg 845 426 \$23 \$24 \$25 \$26 \$27 \$28 \$29;
#X msg 1064 423 \$30 \$31 \$32 \$33 \$34 \$35 \$36;
#X connect 0 0 4 0;
#X connect 1 0 0 0;
#X connect 2 0 0 0;
#X connect 3 0 9 0;
#X connect 3 0 60 0;
#X connect 4 0 3 0;
#X connect 4 1 3 0;
#X connect 4 1 5 0;
#X connect 5 0 50 1;
#X connect 5 0 50 0;
#X connect 5 0 53 0;
#X connect 7 0 8 0;
#X connect 9 0 10 0;
#X connect 18 0 19 0;
#X connect 18 1 20 0;
#X connect 18 2 21 0;
#X connect 18 3 22 0;
#X connect 18 4 23 0;
#X connect 18 5 24 0;
#X connect 18 6 25 0;
#X connect 26 0 27 0;
#X connect 26 1 28 0;
#X connect 26 2 29 0;
#X connect 26 3 30 0;
#X connect 26 4 31 0;
#X connect 26 5 32 0;
#X connect 26 6 33 0;
#X connect 34 0 35 0;
#X connect 34 1 36 0;
#X connect 34 2 37 0;
#X connect 34 3 38 0;
#X connect 34 4 39 0;
#X connect 34 5 40 0;
#X connect 34 6 41 0;
#X connect 42 0 43 0;
#X connect 42 1 44 0;
#X connect 42 2 45 0;
#X connect 42 3 46 0;
#X connect 42 4 47 0;
#X connect 42 5 48 0;
#X connect 42 6 49 0;
#X connect 50 0 6 0;
#X connect 51 0 57 0;
#X connect 52 0 55 0;
#X connect 53 0 51 0;
#X connect 54 0 53 1;
#X connect 55 0 53 1;
#X connect 56 0 54 0;
#X connect 56 0 52 0;
#X connect 58 0 51 0;
#X connect 60 0 7 0;
#X connect 60 0 59 0;
#X connect 60 1 63 0;
#X connect 60 1 64 0;
#X connect 60 1 65 0;
#X connect 60 1 66 0;
#X connect 60 1 67 0;
#X connect 61 0 0 0;
#X connect 62 0 11 0;
#X connect 62 1 12 0;
#X connect 62 2 13 0;
#X connect 62 3 14 0;
#X connect 62 4 15 0;
#X connect 62 5 16 0;
#X connect 62 6 17 0;
#X connect 63 0 62 0;
#X connect 64 0 18 0;
#X connect 65 0 26 0;
#X connect 66 0 34 0;
#X connect 67 0 42 0;
